<svg viewBox="0 0 200 187" xmlns="http://www.w3.org/2000/svg" xmlns:xlink="http://www.w3.org/1999/xlink">
    <mask id="mask0" mask-type="alpha">
        <path fill="#FF0066" d="M64.8,-39.7C76.1,-17.8,72.1,10.8,58.7,35.1C45.4,59.5,22.7,79.7,0.5,79.4C-21.6,79.1,-43.3,58.3,-54.8,35C-66.3,11.7,-67.7,-14.1,-56.9,-35.7C-46,-57.3,-23,-74.7,1.9,-75.7C26.7,-76.8,53.5,-61.6,64.8,-39.7Z" transform="translate(100 100)" />
    </mask>
    <g mask="url(#mask0)">
        <path fill="#FF0066" d="M64.8,-39.7C76.1,-17.8,72.1,10.8,58.7,35.1C45.4,59.5,22.7,79.7,0.5,79.4C-21.6,79.1,-43.3,58.3,-54.8,35C-66.3,11.7,-67.7,-14.1,-56.9,-35.7C-46,-57.3,-23,-74.7,1.9,-75.7C26.7,-76.8,53.5,-61.6,64.8,-39.7Z" transform="translate(100 100)" />
        <image xlink:href=""/>
    </g>
</svg>

